<?xml version="1.0" encoding="utf-8"?>
<!-- Generator: Adobe Illustrator 16.0.0, SVG Export Plug-In . SVG Version: 6.00 Build 0)  -->
<!DOCTYPE svg PUBLIC "-//W3C//DTD SVG 1.1//EN" "http://www.w3.org/Graphics/SVG/1.1/DTD/svg11.dtd" [
	<!ENTITY ns_flows "http://ns.adobe.com/Flows/1.0/">
	<!ENTITY ns_extend "http://ns.adobe.com/Extensibility/1.0/">
	<!ENTITY ns_ai "http://ns.adobe.com/AdobeIllustrator/10.0/">
	<!ENTITY ns_graphs "http://ns.adobe.com/Graphs/1.0/">
]>
<svg version="1.1" id="Layer_1" xmlns:x="&ns_extend;" xmlns:i="&ns_ai;" xmlns:graph="&ns_graphs;"
	 xmlns="http://www.w3.org/2000/svg" xmlns:xlink="http://www.w3.org/1999/xlink" xmlns:a="http://ns.adobe.com/AdobeSVGViewerExtensions/3.0/"
	 x="0px" y="0px" width="120px" height="35px" viewBox="0 0 120 35" enable-background="new 0 0 120 35" xml:space="preserve">
<g id="New_Symbol">
	<g>
		<g>
			<path fill="#787878" d="M41.752,12.765h2.603l4.285,7.416h0.156l4.285-7.416h2.622v14.01h-2.622v-6.907l0.157-2.348h-0.157
				L49.521,23.8h-1.585l-3.581-6.281h-0.157l0.157,2.348v6.907h-2.603V12.765z"/>
			<path fill="#787878" d="M62.063,20.259l-4.715-7.494h3.15l2.798,4.637h0.156l2.7-4.637h3.189l-4.638,7.494v6.516h-2.642V20.259z"
				/>
			<path fill="#787878" d="M82.451,24.524c-0.691,0.835-1.506,1.471-2.445,1.907c-0.939,0.438-1.989,0.656-3.15,0.656
				c-1.044,0-2.013-0.189-2.905-0.567c-0.895-0.379-1.667-0.894-2.319-1.546s-1.167-1.426-1.546-2.319
				c-0.378-0.894-0.567-1.855-0.567-2.886s0.189-1.993,0.567-2.886c0.379-0.894,0.894-1.667,1.546-2.319
				c0.652-0.652,1.425-1.167,2.319-1.546c0.893-0.378,1.861-0.567,2.905-0.567c1.122,0,2.11,0.196,2.965,0.587
				c0.854,0.391,1.614,0.958,2.279,1.702l-1.859,1.8c-0.417-0.482-0.896-0.868-1.438-1.155c-0.542-0.287-1.185-0.43-1.928-0.43
				c-0.652,0-1.266,0.114-1.839,0.342c-0.574,0.229-1.073,0.551-1.497,0.969s-0.76,0.923-1.008,1.516
				c-0.248,0.594-0.372,1.256-0.372,1.986s0.124,1.393,0.372,1.986s0.584,1.099,1.008,1.516c0.424,0.418,0.923,0.741,1.497,0.969
				c0.573,0.229,1.187,0.343,1.839,0.343c0.783,0,1.478-0.16,2.084-0.479s1.145-0.772,1.614-1.36L82.451,24.524z"/>
			<path fill="#787878" d="M89.69,27.088c-0.821,0-1.568-0.135-2.24-0.401c-0.672-0.268-1.242-0.655-1.712-1.164
				s-0.835-1.125-1.096-1.85c-0.262-0.724-0.392-1.549-0.392-2.475v-8.434h2.642v8.59c0,0.47,0.059,0.9,0.176,1.291
				c0.118,0.392,0.294,0.731,0.528,1.018c0.235,0.287,0.528,0.513,0.881,0.675c0.353,0.164,0.756,0.245,1.213,0.245
				c0.47,0,0.881-0.081,1.232-0.245c0.353-0.162,0.646-0.388,0.881-0.675c0.235-0.286,0.411-0.626,0.528-1.018
				c0.117-0.391,0.176-0.821,0.176-1.291v-8.59h2.642v8.434c0,0.874-0.127,1.673-0.381,2.396c-0.255,0.724-0.62,1.344-1.096,1.859
				c-0.477,0.515-1.051,0.916-1.723,1.203C91.278,26.943,90.525,27.088,89.69,27.088z"/>
			<path fill="#787878" d="M97.655,12.765h5.106c0.704,0,1.344,0.111,1.918,0.333c0.573,0.222,1.066,0.528,1.477,0.919
				c0.411,0.392,0.728,0.858,0.949,1.399c0.222,0.542,0.333,1.132,0.333,1.771c0,0.47-0.078,0.91-0.235,1.321
				c-0.156,0.41-0.371,0.782-0.646,1.115c-0.273,0.332-0.594,0.626-0.959,0.88c-0.365,0.255-0.75,0.454-1.154,0.597l-0.02,0.138
				l3.757,5.381v0.156h-3.032l-3.62-5.264h-1.232v5.264h-2.642V12.765z M102.742,19.085c0.6,0,1.093-0.183,1.478-0.548
				s0.577-0.829,0.577-1.39c0-0.248-0.043-0.489-0.127-0.724c-0.085-0.235-0.213-0.443-0.382-0.626
				c-0.17-0.183-0.382-0.329-0.636-0.44c-0.255-0.11-0.545-0.166-0.871-0.166h-2.484v3.894H102.742z"/>
			<path fill="#787878" d="M112.428,15.269v3.249h5.615v2.504h-5.615v3.248h6.241v2.505h-8.883v-14.01h8.883v2.504H112.428z"/>
		</g>
	</g>
	<g>
		<g>
			<path fill="#0099CC" d="M17.135,34.954c-4.535,0-9.068-1.726-12.521-5.179c-5.731-5.73-5.731-15.056,0-20.786
				c4.792-4.793,12.591-4.792,17.383-0.001c4.042,4.042,4.042,10.619,0,14.66c-1.04,1.04-2.727,1.04-3.767,0s-1.04-2.727,0-3.767
				c1.965-1.965,1.965-5.162,0-7.126c-2.716-2.715-7.134-2.715-9.85,0c-3.654,3.654-3.654,9.599,0,13.253
				c4.827,4.827,12.682,4.827,17.509,0c1.04-1.039,2.727-1.04,3.767,0s1.04,2.727,0,3.767
				C26.204,33.228,21.669,34.954,17.135,34.954z"/>
		</g>
		<g>
			<path fill="#00CCFF" d="M15.865,30.846C9.667,30.847,4.46,25.982,4.114,19.719c-0.303-5.48,3.91-10.185,9.39-10.488
				c1.474-0.08,2.725,1.044,2.806,2.512c0.082,1.469-1.044,2.725-2.512,2.807c-2.547,0.141-4.505,2.328-4.365,4.875
				c0.196,3.551,3.244,6.28,6.795,6.084c4.805-0.265,8.498-4.391,8.233-9.196c-0.17-3.087-1.533-5.923-3.836-7.986
				s-5.271-3.105-8.359-2.934c-1.47,0.08-2.725-1.044-2.807-2.512c-0.081-1.469,1.044-2.725,2.513-2.807
				c4.507-0.249,8.843,1.273,12.207,4.285c3.364,3.011,5.353,7.152,5.602,11.661c0.427,7.738-5.521,14.381-13.258,14.809
				C16.302,30.841,16.083,30.846,15.865,30.846z"/>
		</g>
	</g>
</g>
</svg>
